#!OML:ASF E:/inclinewalkrobotboard/Project1/Captureday1/Session1/subject1.ASF
:FULLY-SPECIFIED
:DEGREES
38
root 0 0 0 -3.9497755007114086 -1.1026154412952802 -4.026412275781968
lowerback 12.330067898929133 -0.9040814955435766 1.5209535789912718
upperback 0.9463839170769546 -0.8084175273436236 2.8698117097858633
thorax -5.949967612571672 -0.39831463948283197 2.2810147463552526
lowerneck -16.101177924735126 -2.7635782973821503 -1.5227082419342564
upperneck 21.525476736749106 -3.325423833187531 -0.3457282505271322
head 9.57952257492186 -1.7120487265609063 -0.29074378551315466
rclavicle 2.8574793896919945E-15 -5.899365228707962E-15
rhumerus -32.31694733693727 -24.084585707319228 -76.44039081936782
rradius 23.85756694708529
rwrist 4.785246223889941
rhand -18.31408998403315 22.706005977191317
rfingers 7.125020000000019
rthumb 7.971909550336046 -7.180699711477217
lclavicle -3.025024992077817E-16 -5.861933027026752E-15
lhumerus -33.12123461754701 -1.8000248531079028 84.28863056040986
lradius 29.015785336492215
lwrist 6.597825688073346
lhand -27.373787896669118 23.69359983474056
lfingers 7.125020000000026
lthumb -0.7711368336804529 53.67494728096986
rfemur -16.665257534718997 6.427495685203995 26.903322341530775
rtibia 30.31640351804861
rfoot -10.687710626234905 -6.179864677339138
rtoes 11.541930787132225
lfemur -15.369575918905648 3.8628025736557747 -15.073065193647599
ltibia 69.59288697079896
lfoot 8.489775549895917 -14.718183996349975
ltoes -2.8760430825979313
39
root 0 0 0 -3.94904815972289 -2.1540605384480083 -4.589603497801782
lowerback 11.767710058176 -0.2216810584442087 2.5993609872787635
upperback 0.5125754653813874 0.1929001329485034 2.476314463179211
thorax -6.108323751832979 0.061532408846419195 1.0981171025566137
lowerneck -15.675486262713186 -2.845472075241887 -1.36360051039102
upperneck 21.608600920845916 -3.5468032080526553 -0.13038635724940062
head 9.531691690131264 -1.7823881038821467 -0.26036710482442965
rclavicle 2.090492942429717E-15 -4.09127517795764E-15
rhumerus -31.86258880049374 -23.018724914559364 -76.80826687363803
rradius 24.80180189859953
rwrist 4.065128167999576
rhand -18.395837145043608 22.8542171093779
rfingers 7.125020000000021
rthumb 7.889780616765391 -7.030018650080493
lclavicle -1.342451890029045E-15 -4.029815269286576E-15
lhumerus -33.486464701217955 -1.674266933120226 84.37317376735066
lradius 28.889840217690107
lwrist 6.601407711427788
lhand -27.358531946386577 23.631364865365306
lfingers 7.125020000000026
lthumb -0.7562636187394727 53.61318171203395
rfemur -13.430206536965764 6.886506817602733 28.87166618828592
rtibia 30.249147314235906
rfoot -13.436658034775165 -6.679989113234965
rtoes 10.69530808538
lfemur -23.01087983531067 5.450289346221657 -15.152051645157275
ltibia 67.67648042204905
lfoot 0.21526754728485464 -9.134367338371465
ltoes -0.386419634140573
40
root 0 0 0 -2.7706165653649695 -4.067695180105554 -6.354124190544332
lowerback 11.016273643865354 1.119185908461736 5.358959459320744
upperback 0.06438741354339034 2.3019198477092147 2.306970872075694
thorax -6.013819623876461 1.0296449916800292 -0.9460966144872679
lowerneck -17.301148180210483 -3.3517474483667957 -1.448903092584009
upperneck 23.70806098563462 -4.371866733502203 0.05148403622772357
head 10.567595444032257 -2.0949435052094905 -0.3299932521509987
rclavicle 3.6563095740716647E-16 7.180970227039508E-16
rhumerus -30.889802203497055 -21.211598933610397 -77.26522393675224
rradius 26.681521076661234
rwrist 2.495553274938792
rhand -18.72760385869135 23.170378661903978
rfingers 7.1250200000000214
rthumb 7.566574010240184 -6.7079651059949335
lclavicle -2.8837408655173275E-15 1.0804977800608883E-15
lhumerus -34.25415734374433 -1.3324543476185944 84.61583295285202
lradius 28.613472450607453
lwrist 6.697411101266821
lhand -27.303545392178812 23.626038516430036
lfingers 7.125020000000023
lthumb -0.7050358825903125 53.604434124002694
rfemur -2.5812150556082507 8.230733400039423 35.75442216575383
rtibia 32.075567542941705
rfoot -20.937920911420083 -7.291963678702311
rtoes 9.02375447494391
lfemur -24.167755748632555 5.340524533991681 -14.657082803688372
ltibia 65.92203700957084
lfoot -0.7694051908597643 -7.779670234737058
ltoes -0.0438759771837951
41
root 0 0 0 -2.0445878386329763 -4.780484284154939 -6.940816417751037
lowerback 11.598580076188531 1.6313061795582047 6.197879075500692
upperback 0.4342164629337313 3.0737745452131375 2.279301612919775
thorax -5.859735585564629 1.3890090353172622 -1.5634031416116279
lowerneck -17.340264323814413 -3.561934666015786 -1.4644072790579956
upperneck 21.6492471346944 -4.5873092535788675 0.12878075431088054
head 9.861623128805656 -2.2197627870290377 -0.3131274570960397
rclavicle 7.327226552431666E-16 1.4280775597332037E-15
rhumerus -29.83799762174266 -19.589207356176857 -77.77276696260188
rradius 27.773246297599293
rwrist 1.5788856356607512
rhand -18.932603967896497 23.72008039052827
rfingers 7.125020000000019
rthumb 7.37007260733293 -6.163599415369617
lclavicle -2.4009470163591543E-15 1.8620245401057506E-15
lhumerus -34.78264049125251 -1.0606772195081984 84.83204602749143
lradius 28.340661828892696
lwrist 6.737159954366485
lhand -27.27550021332957 23.778499203178153
lfingers 7.125020000000018
lthumb -0.6785044223069656 53.763182467396625
rfemur -0.69989299336057 8.419408081482008 36.67176778950941
rtibia 32.24030014902529
rfoot -21.897355453342712 -7.510620697886807
rtoes 8.665487251628699
lfemur -28.062481811162527 3.763436418235149 -12.835936111539333
ltibia 53.420604845516635
lfoot -4.367600915128303 -2.8186167816922088
ltoes -2.4955960122492478
